<mxfile host="app.diagrams.net" modified="2023-11-28T11:46:20.375Z" agent="Mozilla/5.0 (Macintosh; Intel Mac OS X 10_15_7) AppleWebKit/537.36 (KHTML, like Gecko) Chrome/119.0.0.0 Safari/537.36" etag="8lV1q3OXYWLVZeHQg0jG" version="22.1.4" type="device">
  <diagram name="Page-1" id="0DFRcew3-hTUfaSDMJ8z">
    <mxGraphModel dx="2618" dy="1515" grid="1" gridSize="10" guides="1" tooltips="1" connect="1" arrows="1" fold="1" page="1" pageScale="1" pageWidth="1920" pageHeight="1200" math="0" shadow="0">
      <root>
        <mxCell id="0" />
        <mxCell id="1" parent="0" />
        <mxCell id="9tO-GS4h1mKYMsfafJvD-1" value="+" style="rounded=0;whiteSpace=wrap;html=1;" vertex="1" parent="1">
          <mxGeometry x="1070" y="360" width="140" height="430" as="geometry" />
        </mxCell>
        <mxCell id="9tO-GS4h1mKYMsfafJvD-2" value="" style="rounded=0;whiteSpace=wrap;html=1;" vertex="1" parent="1">
          <mxGeometry x="740" y="360" width="290" height="430" as="geometry" />
        </mxCell>
        <mxCell id="9tO-GS4h1mKYMsfafJvD-3" value="" style="rounded=0;whiteSpace=wrap;html=1;" vertex="1" parent="1">
          <mxGeometry x="500" y="360" width="210" height="430" as="geometry" />
        </mxCell>
        <mxCell id="9tO-GS4h1mKYMsfafJvD-4" value="" style="rounded=0;whiteSpace=wrap;html=1;" vertex="1" parent="1">
          <mxGeometry x="760" y="380" width="260" height="90" as="geometry" />
        </mxCell>
        <mxCell id="9tO-GS4h1mKYMsfafJvD-5" value="opcode 1" style="rounded=0;whiteSpace=wrap;html=1;" vertex="1" parent="1">
          <mxGeometry x="510" y="410" width="70" height="30" as="geometry" />
        </mxCell>
        <mxCell id="9tO-GS4h1mKYMsfafJvD-6" style="edgeStyle=orthogonalEdgeStyle;rounded=0;orthogonalLoop=1;jettySize=auto;html=1;entryX=0;entryY=0.5;entryDx=0;entryDy=0;" edge="1" parent="1" source="9tO-GS4h1mKYMsfafJvD-7" target="9tO-GS4h1mKYMsfafJvD-4">
          <mxGeometry relative="1" as="geometry" />
        </mxCell>
        <mxCell id="9tO-GS4h1mKYMsfafJvD-7" value="parameter struct 1" style="rounded=0;whiteSpace=wrap;html=1;" vertex="1" parent="1">
          <mxGeometry x="580" y="410" width="120" height="30" as="geometry" />
        </mxCell>
        <mxCell id="9tO-GS4h1mKYMsfafJvD-8" value="opcode 2" style="rounded=0;whiteSpace=wrap;html=1;" vertex="1" parent="1">
          <mxGeometry x="510" y="495" width="70" height="30" as="geometry" />
        </mxCell>
        <mxCell id="9tO-GS4h1mKYMsfafJvD-9" style="edgeStyle=orthogonalEdgeStyle;rounded=0;orthogonalLoop=1;jettySize=auto;html=1;entryX=0;entryY=0.5;entryDx=0;entryDy=0;exitX=1;exitY=0.5;exitDx=0;exitDy=0;" edge="1" parent="1" source="9tO-GS4h1mKYMsfafJvD-15" target="9tO-GS4h1mKYMsfafJvD-31">
          <mxGeometry relative="1" as="geometry">
            <mxPoint x="570" y="665" as="sourcePoint" />
          </mxGeometry>
        </mxCell>
        <mxCell id="9tO-GS4h1mKYMsfafJvD-10" value="parameter struct 2" style="rounded=0;whiteSpace=wrap;html=1;" vertex="1" parent="1">
          <mxGeometry x="580" y="495" width="120" height="30" as="geometry" />
        </mxCell>
        <mxCell id="9tO-GS4h1mKYMsfafJvD-11" value="opcode 3" style="rounded=0;whiteSpace=wrap;html=1;" vertex="1" parent="1">
          <mxGeometry x="510" y="580" width="70" height="30" as="geometry" />
        </mxCell>
        <mxCell id="9tO-GS4h1mKYMsfafJvD-12" style="edgeStyle=orthogonalEdgeStyle;rounded=0;orthogonalLoop=1;jettySize=auto;html=1;entryX=0;entryY=0.5;entryDx=0;entryDy=0;" edge="1" parent="1" source="9tO-GS4h1mKYMsfafJvD-13" target="9tO-GS4h1mKYMsfafJvD-32">
          <mxGeometry relative="1" as="geometry" />
        </mxCell>
        <mxCell id="9tO-GS4h1mKYMsfafJvD-13" value="parameter struct 3" style="rounded=0;whiteSpace=wrap;html=1;" vertex="1" parent="1">
          <mxGeometry x="580" y="580" width="120" height="30" as="geometry" />
        </mxCell>
        <mxCell id="9tO-GS4h1mKYMsfafJvD-14" value="opcode 4" style="rounded=0;whiteSpace=wrap;html=1;" vertex="1" parent="1">
          <mxGeometry x="510" y="650" width="70" height="30" as="geometry" />
        </mxCell>
        <mxCell id="9tO-GS4h1mKYMsfafJvD-15" value="parameter struct 4" style="rounded=0;whiteSpace=wrap;html=1;" vertex="1" parent="1">
          <mxGeometry x="580" y="650" width="120" height="30" as="geometry" />
        </mxCell>
        <mxCell id="9tO-GS4h1mKYMsfafJvD-16" value="opcode 5" style="rounded=0;whiteSpace=wrap;html=1;" vertex="1" parent="1">
          <mxGeometry x="510" y="720" width="70" height="30" as="geometry" />
        </mxCell>
        <mxCell id="9tO-GS4h1mKYMsfafJvD-17" style="edgeStyle=orthogonalEdgeStyle;rounded=0;orthogonalLoop=1;jettySize=auto;html=1;entryX=0;entryY=0.5;entryDx=0;entryDy=0;" edge="1" parent="1" source="9tO-GS4h1mKYMsfafJvD-18" target="9tO-GS4h1mKYMsfafJvD-41">
          <mxGeometry relative="1" as="geometry" />
        </mxCell>
        <mxCell id="9tO-GS4h1mKYMsfafJvD-18" value="parameter struct 5" style="rounded=0;whiteSpace=wrap;html=1;" vertex="1" parent="1">
          <mxGeometry x="580" y="720" width="120" height="30" as="geometry" />
        </mxCell>
        <mxCell id="9tO-GS4h1mKYMsfafJvD-19" value="&lt;font style=&quot;font-size: 20px;&quot;&gt;Program&lt;/font&gt;" style="text;html=1;strokeColor=none;fillColor=none;align=center;verticalAlign=middle;whiteSpace=wrap;rounded=0;" vertex="1" parent="1">
          <mxGeometry x="550" y="290" width="110" height="60" as="geometry" />
        </mxCell>
        <mxCell id="9tO-GS4h1mKYMsfafJvD-20" value="&lt;font style=&quot;font-size: 20px;&quot;&gt;Judgement Result&lt;/font&gt;" style="text;html=1;strokeColor=none;fillColor=none;align=center;verticalAlign=middle;whiteSpace=wrap;rounded=0;" vertex="1" parent="1">
          <mxGeometry x="780" y="290" width="180" height="60" as="geometry" />
        </mxCell>
        <mxCell id="9tO-GS4h1mKYMsfafJvD-21" style="edgeStyle=orthogonalEdgeStyle;rounded=0;orthogonalLoop=1;jettySize=auto;html=1;" edge="1" parent="1" source="9tO-GS4h1mKYMsfafJvD-22" target="9tO-GS4h1mKYMsfafJvD-23">
          <mxGeometry relative="1" as="geometry" />
        </mxCell>
        <mxCell id="9tO-GS4h1mKYMsfafJvD-22" value="plugin 1" style="rounded=0;whiteSpace=wrap;html=1;" vertex="1" parent="1">
          <mxGeometry x="826.25" y="390" width="67.5" height="20" as="geometry" />
        </mxCell>
        <mxCell id="9tO-GS4h1mKYMsfafJvD-23" value="voting rule 1" style="rounded=0;whiteSpace=wrap;html=1;" vertex="1" parent="1">
          <mxGeometry x="915" y="390" width="90" height="20" as="geometry" />
        </mxCell>
        <mxCell id="9tO-GS4h1mKYMsfafJvD-24" style="edgeStyle=orthogonalEdgeStyle;rounded=0;orthogonalLoop=1;jettySize=auto;html=1;" edge="1" parent="1" source="9tO-GS4h1mKYMsfafJvD-25" target="9tO-GS4h1mKYMsfafJvD-26">
          <mxGeometry relative="1" as="geometry" />
        </mxCell>
        <mxCell id="9tO-GS4h1mKYMsfafJvD-25" value="plugin 3" style="rounded=0;whiteSpace=wrap;html=1;" vertex="1" parent="1">
          <mxGeometry x="826.25" y="415" width="67.5" height="20" as="geometry" />
        </mxCell>
        <mxCell id="9tO-GS4h1mKYMsfafJvD-26" value="voting rule 1" style="rounded=0;whiteSpace=wrap;html=1;" vertex="1" parent="1">
          <mxGeometry x="915" y="415" width="90" height="20" as="geometry" />
        </mxCell>
        <mxCell id="9tO-GS4h1mKYMsfafJvD-27" style="edgeStyle=orthogonalEdgeStyle;rounded=0;orthogonalLoop=1;jettySize=auto;html=1;" edge="1" parent="1" source="9tO-GS4h1mKYMsfafJvD-28" target="9tO-GS4h1mKYMsfafJvD-29">
          <mxGeometry relative="1" as="geometry" />
        </mxCell>
        <mxCell id="9tO-GS4h1mKYMsfafJvD-28" value="plugin 4" style="rounded=0;whiteSpace=wrap;html=1;" vertex="1" parent="1">
          <mxGeometry x="826.25" y="440" width="67.5" height="20" as="geometry" />
        </mxCell>
        <mxCell id="9tO-GS4h1mKYMsfafJvD-29" value="voting rule 2" style="rounded=0;whiteSpace=wrap;html=1;" vertex="1" parent="1">
          <mxGeometry x="915" y="440" width="90" height="20" as="geometry" />
        </mxCell>
        <mxCell id="9tO-GS4h1mKYMsfafJvD-30" value="VOTING NEEDED" style="text;html=1;strokeColor=none;fillColor=none;align=center;verticalAlign=middle;whiteSpace=wrap;rounded=0;" vertex="1" parent="1">
          <mxGeometry x="760" y="410" width="60" height="30" as="geometry" />
        </mxCell>
        <mxCell id="9tO-GS4h1mKYMsfafJvD-31" value="" style="rounded=0;whiteSpace=wrap;html=1;" vertex="1" parent="1">
          <mxGeometry x="760" y="645" width="260" height="40" as="geometry" />
        </mxCell>
        <mxCell id="9tO-GS4h1mKYMsfafJvD-32" value="" style="rounded=0;whiteSpace=wrap;html=1;" vertex="1" parent="1">
          <mxGeometry x="760" y="560" width="260" height="70" as="geometry" />
        </mxCell>
        <mxCell id="9tO-GS4h1mKYMsfafJvD-33" style="edgeStyle=orthogonalEdgeStyle;rounded=0;orthogonalLoop=1;jettySize=auto;html=1;" edge="1" parent="1" source="9tO-GS4h1mKYMsfafJvD-34" target="9tO-GS4h1mKYMsfafJvD-35">
          <mxGeometry relative="1" as="geometry" />
        </mxCell>
        <mxCell id="9tO-GS4h1mKYMsfafJvD-34" value="plugin 7" style="rounded=0;whiteSpace=wrap;html=1;" vertex="1" parent="1">
          <mxGeometry x="826.25" y="570" width="67.5" height="20" as="geometry" />
        </mxCell>
        <mxCell id="9tO-GS4h1mKYMsfafJvD-35" value="voting rule 5" style="rounded=0;whiteSpace=wrap;html=1;" vertex="1" parent="1">
          <mxGeometry x="915" y="570" width="90" height="20" as="geometry" />
        </mxCell>
        <mxCell id="9tO-GS4h1mKYMsfafJvD-36" style="edgeStyle=orthogonalEdgeStyle;rounded=0;orthogonalLoop=1;jettySize=auto;html=1;" edge="1" parent="1" source="9tO-GS4h1mKYMsfafJvD-37" target="9tO-GS4h1mKYMsfafJvD-38">
          <mxGeometry relative="1" as="geometry" />
        </mxCell>
        <mxCell id="9tO-GS4h1mKYMsfafJvD-37" value="plugin 10" style="rounded=0;whiteSpace=wrap;html=1;" vertex="1" parent="1">
          <mxGeometry x="826.25" y="600" width="67.5" height="20" as="geometry" />
        </mxCell>
        <mxCell id="9tO-GS4h1mKYMsfafJvD-38" value="voting rule 1" style="rounded=0;whiteSpace=wrap;html=1;" vertex="1" parent="1">
          <mxGeometry x="915" y="600" width="90" height="20" as="geometry" />
        </mxCell>
        <mxCell id="9tO-GS4h1mKYMsfafJvD-39" style="edgeStyle=orthogonalEdgeStyle;rounded=0;orthogonalLoop=1;jettySize=auto;html=1;entryX=0;entryY=0.5;entryDx=0;entryDy=0;exitX=1;exitY=0.5;exitDx=0;exitDy=0;" edge="1" parent="1" source="9tO-GS4h1mKYMsfafJvD-10" target="9tO-GS4h1mKYMsfafJvD-40">
          <mxGeometry relative="1" as="geometry">
            <mxPoint x="570" y="510" as="sourcePoint" />
          </mxGeometry>
        </mxCell>
        <mxCell id="9tO-GS4h1mKYMsfafJvD-40" value="YES" style="rounded=0;whiteSpace=wrap;html=1;" vertex="1" parent="1">
          <mxGeometry x="760" y="490" width="260" height="40" as="geometry" />
        </mxCell>
        <mxCell id="9tO-GS4h1mKYMsfafJvD-41" value="" style="rounded=0;whiteSpace=wrap;html=1;" vertex="1" parent="1">
          <mxGeometry x="760" y="700" width="260" height="70" as="geometry" />
        </mxCell>
        <mxCell id="9tO-GS4h1mKYMsfafJvD-42" style="edgeStyle=orthogonalEdgeStyle;rounded=0;orthogonalLoop=1;jettySize=auto;html=1;" edge="1" parent="1" source="9tO-GS4h1mKYMsfafJvD-43" target="9tO-GS4h1mKYMsfafJvD-44">
          <mxGeometry relative="1" as="geometry" />
        </mxCell>
        <mxCell id="9tO-GS4h1mKYMsfafJvD-43" value="plugin 4" style="rounded=0;whiteSpace=wrap;html=1;" vertex="1" parent="1">
          <mxGeometry x="826.25" y="710" width="67.5" height="20" as="geometry" />
        </mxCell>
        <mxCell id="9tO-GS4h1mKYMsfafJvD-44" value="voting rule 2" style="rounded=0;whiteSpace=wrap;html=1;" vertex="1" parent="1">
          <mxGeometry x="915" y="710" width="90" height="20" as="geometry" />
        </mxCell>
        <mxCell id="9tO-GS4h1mKYMsfafJvD-45" style="edgeStyle=orthogonalEdgeStyle;rounded=0;orthogonalLoop=1;jettySize=auto;html=1;" edge="1" parent="1" source="9tO-GS4h1mKYMsfafJvD-46" target="9tO-GS4h1mKYMsfafJvD-47">
          <mxGeometry relative="1" as="geometry" />
        </mxCell>
        <mxCell id="9tO-GS4h1mKYMsfafJvD-46" value="plugin 10" style="rounded=0;whiteSpace=wrap;html=1;" vertex="1" parent="1">
          <mxGeometry x="826.25" y="740" width="67.5" height="20" as="geometry" />
        </mxCell>
        <mxCell id="9tO-GS4h1mKYMsfafJvD-47" value="voting rule 1" style="rounded=0;whiteSpace=wrap;html=1;" vertex="1" parent="1">
          <mxGeometry x="915" y="740" width="90" height="20" as="geometry" />
        </mxCell>
        <mxCell id="9tO-GS4h1mKYMsfafJvD-48" style="edgeStyle=orthogonalEdgeStyle;rounded=0;orthogonalLoop=1;jettySize=auto;html=1;" edge="1" parent="1" source="9tO-GS4h1mKYMsfafJvD-49" target="9tO-GS4h1mKYMsfafJvD-50">
          <mxGeometry relative="1" as="geometry" />
        </mxCell>
        <mxCell id="9tO-GS4h1mKYMsfafJvD-49" value="plugin 14" style="rounded=0;whiteSpace=wrap;html=1;" vertex="1" parent="1">
          <mxGeometry x="826.25" y="655" width="67.5" height="20" as="geometry" />
        </mxCell>
        <mxCell id="9tO-GS4h1mKYMsfafJvD-50" value="voting rule 7" style="rounded=0;whiteSpace=wrap;html=1;" vertex="1" parent="1">
          <mxGeometry x="915" y="655" width="90" height="20" as="geometry" />
        </mxCell>
        <mxCell id="9tO-GS4h1mKYMsfafJvD-51" value="&lt;font style=&quot;font-size: 20px;&quot;&gt;Voting Item Array&lt;/font&gt;" style="text;html=1;strokeColor=none;fillColor=none;align=center;verticalAlign=middle;whiteSpace=wrap;rounded=0;" vertex="1" parent="1">
          <mxGeometry x="1050" y="290" width="180" height="60" as="geometry" />
        </mxCell>
        <mxCell id="9tO-GS4h1mKYMsfafJvD-52" value="Voting Item 1 (rule 1)" style="rounded=0;whiteSpace=wrap;html=1;" vertex="1" parent="1">
          <mxGeometry x="1080" y="370" width="120" height="30" as="geometry" />
        </mxCell>
        <mxCell id="9tO-GS4h1mKYMsfafJvD-53" value="Voting Item 2 (rule 1)" style="rounded=0;whiteSpace=wrap;html=1;" vertex="1" parent="1">
          <mxGeometry x="1080" y="410" width="120" height="30" as="geometry" />
        </mxCell>
        <mxCell id="9tO-GS4h1mKYMsfafJvD-54" value="Voting Item 3 (rule 2)" style="rounded=0;whiteSpace=wrap;html=1;" vertex="1" parent="1">
          <mxGeometry x="1080" y="450" width="120" height="30" as="geometry" />
        </mxCell>
        <mxCell id="9tO-GS4h1mKYMsfafJvD-55" value="Voting Item 4 (rule 5)" style="rounded=0;whiteSpace=wrap;html=1;" vertex="1" parent="1">
          <mxGeometry x="1080" y="560" width="120" height="30" as="geometry" />
        </mxCell>
        <mxCell id="9tO-GS4h1mKYMsfafJvD-56" value="Voting Item 5 (rule 1)" style="rounded=0;whiteSpace=wrap;html=1;" vertex="1" parent="1">
          <mxGeometry x="1080" y="595" width="120" height="30" as="geometry" />
        </mxCell>
        <mxCell id="9tO-GS4h1mKYMsfafJvD-57" value="Voting Item 6 (rule 7)" style="rounded=0;whiteSpace=wrap;html=1;" vertex="1" parent="1">
          <mxGeometry x="1080" y="645" width="120" height="30" as="geometry" />
        </mxCell>
        <mxCell id="9tO-GS4h1mKYMsfafJvD-58" value="Voting Item 7 (rule 2)" style="rounded=0;whiteSpace=wrap;html=1;" vertex="1" parent="1">
          <mxGeometry x="1080" y="700" width="120" height="30" as="geometry" />
        </mxCell>
        <mxCell id="9tO-GS4h1mKYMsfafJvD-59" value="Voting Item 8 (rule 1)" style="rounded=0;whiteSpace=wrap;html=1;" vertex="1" parent="1">
          <mxGeometry x="1080" y="735" width="120" height="30" as="geometry" />
        </mxCell>
        <mxCell id="9tO-GS4h1mKYMsfafJvD-60" value="" style="shape=flexArrow;endArrow=classic;html=1;rounded=0;entryX=0.004;entryY=0.533;entryDx=0;entryDy=0;entryPerimeter=0;" edge="1" parent="1" target="9tO-GS4h1mKYMsfafJvD-1">
          <mxGeometry width="50" height="50" relative="1" as="geometry">
            <mxPoint x="1030" y="589" as="sourcePoint" />
            <mxPoint x="1160" y="525" as="targetPoint" />
          </mxGeometry>
        </mxCell>
        <mxCell id="9tO-GS4h1mKYMsfafJvD-61" value="VOTING NEEDED" style="text;html=1;strokeColor=none;fillColor=none;align=center;verticalAlign=middle;whiteSpace=wrap;rounded=0;" vertex="1" parent="1">
          <mxGeometry x="760" y="580" width="60" height="30" as="geometry" />
        </mxCell>
        <mxCell id="9tO-GS4h1mKYMsfafJvD-62" value="VOTING NEEDED" style="text;html=1;strokeColor=none;fillColor=none;align=center;verticalAlign=middle;whiteSpace=wrap;rounded=0;" vertex="1" parent="1">
          <mxGeometry x="760" y="650" width="60" height="30" as="geometry" />
        </mxCell>
        <mxCell id="9tO-GS4h1mKYMsfafJvD-63" value="VOTING NEEDED" style="text;html=1;strokeColor=none;fillColor=none;align=center;verticalAlign=middle;whiteSpace=wrap;rounded=0;" vertex="1" parent="1">
          <mxGeometry x="760" y="720" width="60" height="30" as="geometry" />
        </mxCell>
      </root>
    </mxGraphModel>
  </diagram>
</mxfile>
